<svg id="Layer_1" data-name="Layer 1" xmlns="http://www.w3.org/2000/svg" viewBox="0 0 50 50"><title>Editor_icon</title><path d="M6,2V48H32.58a24.25,24.25,0,0,1-2.43-2H8V4H42V29.15A8.29,8.29,0,0,1,43.5,29c.17,0,.33,0,.5,0V2Z"/><rect x="13" y="14" width="4" height="2"/><rect x="20" y="14" width="17" height="2"/><rect x="13" y="20" width="4" height="2"/><rect x="20" y="20" width="17" height="2"/><rect x="13" y="26" width="4" height="2"/><rect x="20" y="26" width="17" height="2"/><rect x="13" y="32" width="4" height="2"/><path d="M20,32v2H31.82a8.45,8.45,0,0,1,1.26-2Z"/><path d="M45.23,44c-.14.64-.74,3.21-1,4H33.32v-.7c2.09-.17,2.25-.4,2.25-2.44V35c0-2.22-.25-2.34-1.94-2.52v-.7h6.89c2.12,0,3,0,3.27-.05,0,.63.11,2.5.2,3.82l-.67.12a9.13,9.13,0,0,0-.68-1.89c-.36-.82-.88-1-2.23-1H38.27c-.7,0-.74.08-.74.8V39.1H40c1.69,0,1.8-.38,2.07-2.07h.7v5.14h-.7c-.29-1.8-.47-2.05-2.1-2.05H37.53v5c0,1.75.49,1.9,1.62,1.92h2.09c1.38,0,1.6-.22,2.1-.87a10.73,10.73,0,0,0,1.21-2.29Z"/></svg>