<svg id="Layer_1" data-name="Layer 1" xmlns="http://www.w3.org/2000/svg" viewBox="0 0 50 50">
    <title>Marketer</title>
    <path d="M6,2V48H32.6c-.8-.6-1.6-1.3-2.4-2H8V4H42V29.2a7.72,7.72,0,0,1,1.5-.2H44V2Z"/>
    <rect x="13" y="14" width="4" height="2"/>
    <rect x="20" y="14" width="17" height="2"/>
    <rect x="13" y="20" width="4" height="2"/>
    <rect x="20" y="20" width="17" height="2"/>
    <rect x="13" y="26" width="4" height="2"/>
    <rect x="20" y="26" width="17" height="2"/>
    <rect x="13" y="32" width="4" height="2"/>
    <path d="M20,32v2h8.5a6.25,6.25,0,0,1,1.3-2Z"/>
    <path d="M40,48v-.69c1.4-.2,1.45-.35,1.43-3l0-10.06c-1.4,4.51-3.64,11.57-4.23,13.74H36.8c-.57-2.24-2.5-9-3.79-13.5-.29,8.64-.3,10.59-.3,11.06,0,1.38.44,1.58,1.59,1.75V48h-4v-.69c1-.15,1.39-.44,1.53-1.78.1-1.08.11-2,.56-11,.06-1.28-.11-1.7-1.6-1.9V32h3l3.75,12.51,4-12.51h3v.69c-1.47.25-1.65.47-1.62,2.2l.07,9.47c.07,2.64.12,2.77,1.61,3V48Z"/>
</svg>