<?xml version="1.0" encoding="utf-8"?>
<!-- Generator: Adobe Illustrator 22.1.0, SVG Export Plug-In . SVG Version: 6.00 Build 0)  -->
<svg version="1.1" id="Layer_1" xmlns="http://www.w3.org/2000/svg" x="0px" y="0px"
     viewBox="0 0 50 50" style="enable-background:new 0 0 50 50;" xml:space="preserve">
<style type="text/css">
	.st0{fill:#130073;}
</style>
    <title>Artboard 1</title>
    <path class="st0" d="M6,2v46h26.6c-0.9-0.6-1.7-1.3-2.4-2H8V4h34v25.1c0.5-0.1,1-0.1,1.5-0.1c0.2,0,0.3,0,0.5,0V2H6z"/>
    <rect x="13" y="14" class="st0" width="4" height="2"/>
    <rect x="20" y="14" class="st0" width="17" height="2"/>
    <rect x="13" y="20" class="st0" width="4" height="2"/>
    <rect x="20" y="20" class="st0" width="17" height="2"/>
    <rect x="13" y="26" class="st0" width="4" height="2"/>
    <rect x="20" y="26" class="st0" width="17" height="2"/>
    <rect x="13" y="32" class="st0" width="4" height="2"/>
    <path class="st0" d="M20,32v2h6.7c0.3-0.7,0.8-1.4,1.3-2H20z"/>
    <path class="st0" d="M45.7,34.6c-0.2-0.8-0.5-1.5-0.9-2.2c-0.5-0.7-0.7-0.9-2.3-0.9h-2.9v12.9c0,2.1,0.2,2.4,2.9,2.5v0.7h-8.3V47
	c2.7-0.2,2.9-0.4,2.9-2.5v-13h-2.6c-1.6,0-2,0.2-2.5,1c-0.4,0.7-0.7,1.4-0.9,2.2h-0.9c0.2-1.6,0.3-3.3,0.4-4.8h0.7
	c0.4,0.6,0.7,0.6,1.5,0.6h11.3c0.6,0.1,1.1-0.1,1.5-0.6h0.7c0,1.3,0.1,3.2,0.3,4.7L45.7,34.6z"/>
</svg>
