<svg id="Layer_1" data-name="Layer 1" xmlns="http://www.w3.org/2000/svg" viewBox="0 0 80 80">
    <defs>
        <style>.cls-1{fill:#130073;}</style>
    </defs>
    <title>course_detail</title>
    <path class="cls-1"
          d="M15,9V71H49.63A16,16,0,1,0,65,48.05V23.59L50.41,9Zm2,2H49V25H63v23A16,16,0,0,0,48.81,69H17Zm34,1.41L61.59,23H51ZM22,13a1,1,0,1,0,1,1A1,1,0,0,0,22,13Zm0,4a1,1,0,1,0,1,1A1,1,0,0,0,22,17Zm0,4a1,1,0,1,0,1,1A1,1,0,0,0,22,21Zm0,4a1,1,0,1,0,1,1A1,1,0,0,0,22,25Zm0,4a1,1,0,1,0,1,1A1,1,0,0,0,22,29Zm8,3a2,2,0,1,0,2,2A2,2,0,0,0,30,32Zm-8,1a1,1,0,1,0,1,1A1,1,0,0,0,22,33Zm13,0v2H53V33ZM22,37a1,1,0,1,0,1,1A1,1,0,0,0,22,37Zm8,3a2,2,0,1,0,2,2A2,2,0,0,0,30,40Zm-8,1a1,1,0,1,0,1,1A1,1,0,0,0,22,41Zm13,0v2H53V41ZM22,45a1,1,0,1,0,1,1A1,1,0,0,0,22,45Zm8,3a2,2,0,1,0,2,2A2,2,0,0,0,30,48Zm-8,1a1,1,0,1,0,1,1A1,1,0,0,0,22,49Zm13,0v2H53V49Zm29,1A14,14,0,1,1,50,64,14,14,0,0,1,64,50ZM22,53a1,1,0,1,0,1,1A1,1,0,0,0,22,53Zm0,4a1,1,0,1,0,1,1A1,1,0,0,0,22,57Zm41,0v6H57v2h6v6h2V65h6V63H65V57ZM22,61a1,1,0,1,0,1,1A1,1,0,0,0,22,61Zm0,4a1,1,0,1,0,1,1A1,1,0,0,0,22,65Z"/>
</svg>