<svg id="Layer_1" data-name="Layer 1" xmlns="http://www.w3.org/2000/svg" viewBox="0 0 50 50"><title>Curators</title><path d="M6,2V48H32.58a24.25,24.25,0,0,1-2.43-2H8V4H42V29.15A8.29,8.29,0,0,1,43.5,29c.17,0,.33,0,.5,0V2Z"/><rect x="13" y="14" width="4" height="2"/><rect x="20" y="14" width="17" height="2"/><rect x="13" y="20" width="4" height="2"/><rect x="20" y="20" width="17" height="2"/><rect x="13" y="26" width="4" height="2"/><rect x="20" y="26" width="17" height="2"/><rect x="13" y="32" width="4" height="2"/><path d="M20,32v2H31.82a8.45,8.45,0,0,1,1.26-2Z"/><path d="M44.3,43.46A30.36,30.36,0,0,1,43.07,47a21.44,21.44,0,0,1-4.13.56c-5.38,0-8.13-3.84-8.13-7.77,0-5,3.56-8,8.65-8a23.36,23.36,0,0,1,4.15.54c.09,1,.24,2.46.42,3.62l-.69.17c-.46-1.56-1-2.59-2.19-3.07a5.42,5.42,0,0,0-2.25-.4c-3.78,0-5.74,3.12-5.74,6.68,0,4.48,2.5,7.37,5.92,7.37,2.3,0,3.4-1.1,4.55-3.42Z"/></svg>