<?xml version="1.0" encoding="utf-8"?>
<!-- Generator: Adobe Illustrator 22.1.0, SVG Export Plug-In . SVG Version: 6.00 Build 0)  -->
<svg version="1.1" id="Layer_1" xmlns="http://www.w3.org/2000/svg" x="0px" y="0px"
     viewBox="0 0 50 50" style="enable-background:new 0 0 50 50;" xml:space="preserve">
<style type="text/css">
	.st0{fill:#130073;}
</style>
    <title>Students</title>
    <path class="st0" d="M6,2v46h26.6c-0.9-0.6-1.7-1.3-2.4-2H8V4h34v25.1c0.5-0.1,1-0.1,1.5-0.1c0.2,0,0.3,0,0.5,0V2H6z"/>
    <rect x="13" y="14" class="st0" width="4" height="2"/>
    <rect x="20" y="14" class="st0" width="17" height="2"/>
    <rect x="13" y="20" class="st0" width="4" height="2"/>
    <rect x="20" y="20" class="st0" width="17" height="2"/>
    <rect x="13" y="26" class="st0" width="4" height="2"/>
    <rect x="20" y="26" class="st0" width="17" height="2"/>
    <rect x="13" y="32" class="st0" width="4" height="2"/>
    <path class="st0" d="M20,32v2h11.8c0.3-0.7,0.7-1.4,1.3-2H20z"/>
    <path class="st0" d="M42.4,34.8c-0.5-1.8-1.4-3.5-3.9-3.5c-1.5-0.2-2.9,0.9-3.1,2.5c0,0.1,0,0.3,0,0.4c0,1.9,1.4,2.8,3.6,3.9
	s4.9,2.3,4.9,5.3c0,2.8-2.6,5-6.2,5c-1.5-0.1-3-0.3-4.4-0.8c-0.2-0.7-0.6-2.8-0.8-4.1l0.9-0.2c0.5,1.6,1.7,4.1,4.7,4.1
	c2.2,0,3.4-1.3,3.4-3.2s-1.5-2.9-3.7-4C36,39.3,33.1,38,33.1,35c0-2.5,2-4.6,5.8-4.6c1.3,0.1,2.6,0.2,3.9,0.5c0.1,1,0.2,2.1,0.5,3.8
	L42.4,34.8z"/>
</svg>
